<svg width="818" height="316" viewBox="0 0 818 316" fill="none" xmlns="http://www.w3.org/2000/svg">
<path d="M45.0474 86.4453C53.8822 75.9374 64.7085 71.5885 76.5324 66.5416C113.66 28.8072 169.98 34.6755 219.87 32.0039C251.604 30.3045 283.435 31.778 315.181 30.078C353.266 28.0386 391.53 28.9782 429.649 29.7746C478.657 30.7985 527.334 35.5354 576.145 39.1732C622.598 42.6353 673.387 44.0802 717.457 61.2669C745.715 72.2868 781.624 90.0132 797.344 117.488C803.717 128.627 806.888 143.1 807.568 155.782C808.318 169.79 801.852 184.526 795.674 196.908C791.816 204.64 785.413 208.39 777.89 212.103C768.286 216.843 759.266 222.374 749.937 227.606C723.414 242.481 691.965 249.47 662.799 257.166C644.066 262.109 625.299 267.297 606.188 270.614C584.306 274.412 562.119 276.408 540.172 279.858C508.997 284.759 477.734 288.361 446.318 291.298C434.416 292.411 422.516 294.481 410.562 294.92C387.274 295.774 364.17 290.735 341.015 289.11C320.867 287.696 300.512 288.577 280.324 288.299C256.581 287.972 232.915 289.266 209.187 289.284C187.695 289.3 166.496 286.214 145.257 283.291C132.9 281.59 120.264 280.482 108.403 276.378C90.0658 270.033 72.7024 260.213 56.2951 250.037C43.8602 242.325 31.4932 233.596 22.9073 221.576C16.8913 213.153 13.2818 203.925 11.6482 193.812C6.89408 164.382 16.3316 136.117 29.0031 109.786C33.4632 100.518 38.5581 94.1635 45.0474 86.4453Z" fill="#FFD179"/>
<path d="M83.0369 63.6955C68.6881 70.2173 55.4794 74.0378 45.0474 86.4453C38.5581 94.1635 33.4632 100.518 29.0031 109.786C16.3316 136.117 6.89408 164.382 11.6482 193.812C13.2818 203.925 16.8913 213.153 22.9073 221.576C31.4932 233.596 43.8602 242.325 56.2951 250.037C72.7024 260.213 90.0658 270.033 108.403 276.378C120.264 280.482 132.9 281.59 145.257 283.291C166.496 286.214 187.695 289.3 209.187 289.284C232.915 289.266 256.581 287.972 280.324 288.299C300.512 288.577 320.867 287.696 341.015 289.11C364.17 290.735 387.274 295.774 410.562 294.92C422.516 294.481 434.416 292.411 446.318 291.298C477.734 288.361 508.997 284.759 540.172 279.858C562.119 276.408 584.306 274.412 606.188 270.614C625.299 267.297 644.066 262.109 662.799 257.166C691.965 249.47 723.414 242.481 749.937 227.606C759.266 222.374 768.286 216.843 777.89 212.103C785.413 208.39 791.816 204.64 795.674 196.908C801.852 184.526 808.318 169.79 807.568 155.782C806.888 143.1 803.717 128.627 797.344 117.488C781.624 90.0132 745.715 72.2868 717.457 61.2669C673.387 44.0802 622.598 42.6353 576.145 39.1732C527.334 35.5354 478.657 30.7985 429.649 29.7746C391.53 28.9782 353.266 28.0386 315.181 30.078C283.435 31.778 251.604 30.3045 219.87 32.0039C168.718 34.743 110.807 28.5049 73.7525 69.4893" stroke="#FFF7AF" stroke-width="20" stroke-linecap="round"/>
<path d="M88.0439 185.116L88.0059 201.15C88.0059 202.268 87.6885 203.296 87.0537 204.235C86.165 205.53 84.8701 206.178 83.1689 206.178C81.1631 206.178 79.5889 205.365 78.4463 203.74C77.5576 202.471 77.1133 201.112 77.1133 199.665C77.1133 194.028 77.291 185.561 77.6465 174.262C78.002 162.963 78.1797 154.495 78.1797 148.858C78.1797 147.437 78.6875 146.218 79.7031 145.202C80.7188 144.187 81.9883 143.679 83.5117 143.679C85.0352 143.679 86.292 144.187 87.2822 145.202C88.2979 146.218 88.8057 147.437 88.8057 148.858C88.8057 151.144 88.6914 154.229 88.4629 158.113C88.1836 162.633 88.0186 165.718 87.9678 167.368C89.7451 165.692 96.334 158.634 107.734 146.192C108.902 144.923 110.248 144.288 111.771 144.288C113.219 144.288 114.476 144.796 115.542 145.812C116.634 146.827 117.18 148.059 117.18 149.506C117.18 151.08 114.158 155.168 108.115 161.77C103.646 166.619 98.9365 171.405 93.9854 176.128C96.7529 178.743 99.5332 181.358 102.326 183.974C105.576 186.97 108.496 189.433 111.086 191.362C112.381 192.302 113.777 193.013 115.275 193.495C117.992 194.358 119.351 196.021 119.351 198.484C119.351 199.576 119.008 200.63 118.322 201.646C117.383 203.017 116.075 203.702 114.399 203.702C110.769 203.702 106.059 201.328 100.27 196.58C98.543 195.158 94.4678 191.337 88.0439 185.116ZM164.635 195.399C162.781 197.913 160.547 200.008 157.932 201.684C154.732 203.715 151.444 204.73 148.067 204.73C141.593 204.73 136.781 203.486 133.633 200.998C126.98 195.742 123.654 186.614 123.654 173.614C123.654 172.37 123.718 170.517 123.845 168.054C123.972 165.591 124.035 163.737 124.035 162.493C124.035 161.503 124.061 160.03 124.111 158.075C124.162 156.095 124.188 154.609 124.188 153.619C124.188 151.588 124.556 149.671 125.292 147.868C126.282 145.481 127.666 144.288 129.443 144.288C130.84 144.288 132.071 144.745 133.138 145.659C134.306 146.624 134.89 147.868 134.89 149.392C134.89 150.839 134.864 153.035 134.813 155.98C134.788 158.9 134.775 161.097 134.775 162.569C134.775 163.788 134.712 165.629 134.585 168.092C134.458 170.555 134.395 172.396 134.395 173.614C134.395 177.55 134.852 181.206 135.766 184.583C136.832 188.62 138.394 191.438 140.45 193.038C141.517 193.876 144.056 194.32 148.067 194.371C154.771 194.473 159.29 188.76 161.626 177.232C162.845 171.266 163.454 162.887 163.454 152.096C163.454 150.674 163.873 149.303 164.711 147.982C165.854 146.23 167.479 145.354 169.586 145.354C171.312 145.354 172.607 145.989 173.471 147.259C174.131 148.198 174.461 149.239 174.461 150.382C174.461 160.411 173.991 168.231 173.052 173.843C171.63 182.501 168.824 189.687 164.635 195.399ZM238.407 192.619C238.407 193.889 238.191 195.895 237.76 198.637C237.252 201.912 235.398 203.55 232.199 203.55C230.422 203.55 228.416 202.547 226.182 200.541C216.406 191.73 205.374 179.378 193.085 163.483C192.933 170.085 192.856 174.135 192.856 175.633C192.856 177.639 192.895 180.66 192.971 184.697C193.072 188.734 193.123 191.756 193.123 193.762C193.123 201.252 191.295 204.997 187.639 204.997C185.785 204.997 184.3 204.426 183.183 203.283C182.192 202.268 181.697 201.036 181.697 199.589C181.697 198.573 181.773 197.037 181.926 194.98C182.104 192.924 182.192 191.388 182.192 190.372C182.192 188.874 182.243 186.627 182.345 183.631C182.446 180.635 182.497 178.388 182.497 176.89C182.497 175.29 182.459 172.878 182.383 169.653C182.307 166.429 182.269 164.017 182.269 162.417C182.269 160.894 182.116 158.621 181.812 155.6C181.507 152.578 181.354 150.306 181.354 148.782C181.354 147.259 182.002 145.9 183.297 144.707C184.617 143.514 186.115 142.917 187.791 142.917C189.67 142.917 191.752 144.542 194.037 147.792C205.564 164.245 216.939 177.664 228.162 188.049C228.188 187.236 228.2 185.307 228.2 182.26C228.2 169.742 228.073 161.3 227.819 156.933C227.769 156.196 227.604 154.825 227.324 152.819C227.07 151.042 226.943 149.646 226.943 148.63C226.943 145.126 228.797 143.374 232.504 143.374C236.643 143.374 238.712 149.76 238.712 162.531C238.712 162.811 238.687 164.816 238.636 168.549C238.483 181.447 238.407 189.471 238.407 192.619ZM292.489 179.594C290.763 187.16 287.284 193.216 282.054 197.761C276.747 202.331 270.526 204.616 263.392 204.616C256.638 204.616 251.572 202.839 248.195 199.284C244.818 195.704 243.13 190.347 243.13 183.212C243.13 176.712 244.729 170.047 247.929 163.217C251.128 156.387 255.241 150.852 260.269 146.611C263.798 143.641 267.581 142.155 271.618 142.155C274.081 142.155 277.433 143.044 281.673 144.821C286.7 146.929 289.214 149.176 289.214 151.562C289.214 152.934 288.693 154.165 287.652 155.257C286.611 156.323 285.329 156.856 283.806 156.856C283.044 156.856 281.355 156.146 278.74 154.724C276.15 153.276 273.776 152.553 271.618 152.553C269.333 152.553 266.248 155.016 262.363 159.941C256.701 167.102 253.87 174.858 253.87 183.212C253.87 187.452 254.492 190.334 255.736 191.857C257.057 193.457 259.608 194.257 263.392 194.257C267.276 194.257 270.691 193.152 273.637 190.943C276.76 188.607 279.07 185.205 280.568 180.736C274.678 181.193 269.549 182.399 265.182 184.354C264.395 184.71 263.607 184.888 262.82 184.888C261.246 184.888 259.938 184.304 258.897 183.136C257.958 182.095 257.488 180.914 257.488 179.594C257.488 175.709 262.084 172.992 271.275 171.443C276.455 170.58 282.498 170.148 289.404 170.148C290.928 170.148 292.197 170.644 293.213 171.634C294.254 172.624 294.774 173.843 294.774 175.29C294.774 177.144 294.013 178.578 292.489 179.594ZM368.699 154.381C368.115 154.381 367.468 154.267 366.757 154.038C363.481 152.972 359.482 152.438 354.76 152.438C353.211 152.438 351.421 152.54 349.39 152.743C347.384 152.946 345.149 153.251 342.687 153.657C342.737 158.532 342.737 162.722 342.687 166.226C346.546 165.286 349.745 164.816 352.284 164.816C357.007 164.816 361.12 165.032 364.624 165.464C367.899 165.87 369.537 167.597 369.537 170.644C369.537 172.116 369.017 173.348 367.976 174.338C366.935 175.328 365.665 175.823 364.167 175.823C362.847 175.823 360.866 175.722 358.226 175.519C355.585 175.315 353.604 175.214 352.284 175.214C350.431 175.214 347.231 175.798 342.687 176.966V200.846C342.687 202.318 342.103 203.55 340.935 204.54C339.792 205.53 338.472 206.025 336.974 206.025C335.501 206.025 334.308 205.53 333.394 204.54C332.479 203.575 332.022 202.344 332.022 200.846V157.199C332.022 156.209 332.035 154.711 332.061 152.705C332.111 150.699 332.137 149.201 332.137 148.211C332.137 146.713 332.632 145.469 333.622 144.479C334.638 143.488 335.907 142.993 337.431 142.993C338.396 142.993 339.246 143.184 339.982 143.564C342.928 143.057 345.632 142.688 348.095 142.46C350.558 142.206 352.779 142.079 354.76 142.079C357.654 142.079 361.298 142.676 365.69 143.869C371.2 145.367 373.955 147.106 373.955 149.087C373.955 150.534 373.435 151.778 372.394 152.819C371.378 153.86 370.146 154.381 368.699 154.381ZM419.811 195.399C417.957 197.913 415.723 200.008 413.107 201.684C409.908 203.715 406.62 204.73 403.243 204.73C396.769 204.73 391.957 203.486 388.809 200.998C382.156 195.742 378.83 186.614 378.83 173.614C378.83 172.37 378.894 170.517 379.021 168.054C379.147 165.591 379.211 163.737 379.211 162.493C379.211 161.503 379.236 160.03 379.287 158.075C379.338 156.095 379.363 154.609 379.363 153.619C379.363 151.588 379.731 149.671 380.468 147.868C381.458 145.481 382.842 144.288 384.619 144.288C386.016 144.288 387.247 144.745 388.313 145.659C389.481 146.624 390.065 147.868 390.065 149.392C390.065 150.839 390.04 153.035 389.989 155.98C389.964 158.9 389.951 161.097 389.951 162.569C389.951 163.788 389.888 165.629 389.761 168.092C389.634 170.555 389.57 172.396 389.57 173.614C389.57 177.55 390.027 181.206 390.941 184.583C392.008 188.62 393.569 191.438 395.626 193.038C396.692 193.876 399.231 194.32 403.243 194.371C409.946 194.473 414.466 188.76 416.802 177.232C418.021 171.266 418.63 162.887 418.63 152.096C418.63 150.674 419.049 149.303 419.887 147.982C421.029 146.23 422.654 145.354 424.762 145.354C426.488 145.354 427.783 145.989 428.646 147.259C429.307 148.198 429.637 149.239 429.637 150.382C429.637 160.411 429.167 168.231 428.228 173.843C426.806 182.501 424 189.687 419.811 195.399ZM482.919 180.736C482.487 180.736 481.421 180.647 479.72 180.47C479.567 184.024 479.491 189.864 479.491 197.989C479.491 199.335 479.021 200.49 478.082 201.455C477.143 202.42 475.949 202.902 474.502 202.902C473.055 202.902 471.849 202.42 470.884 201.455C469.944 200.49 469.475 199.335 469.475 197.989V187.363C469.475 183.428 469.729 177.601 470.236 169.882C470.719 162.036 470.973 156.184 470.998 152.324C471.023 145.723 472.877 142.562 476.559 142.841C477.422 142.612 478.615 142.447 480.139 142.346C481.662 142.219 483.516 142.155 485.699 142.155C490.676 142.155 495.348 143.768 499.715 146.992C504.564 150.598 506.989 154.99 506.989 160.17C506.989 166.67 504.412 171.837 499.258 175.671C494.688 179.048 489.241 180.736 482.919 180.736ZM484.823 151.981C484.011 151.981 483.287 151.994 482.652 152.02C482.043 152.02 481.522 152.045 481.091 152.096C481.091 153.289 481.078 155.079 481.053 157.466C481.002 160.284 480.761 164.677 480.329 170.644C481.624 170.847 482.487 170.948 482.919 170.948C486.88 170.948 490.168 170.009 492.783 168.13C495.576 166.124 496.973 163.471 496.973 160.17C496.973 158.012 495.665 156.095 493.05 154.419C490.536 152.794 487.794 151.981 484.823 151.981ZM556.387 203.131C554.381 203.055 552.362 200.693 550.331 196.047C548.985 193.051 547.83 189.598 546.865 185.688C544.986 185.967 541.914 186.246 537.648 186.525C533.637 186.805 530.564 187.135 528.432 187.516C527.264 190.309 525.232 194.511 522.338 200.122C521.221 201.95 519.672 202.864 517.691 202.864C516.295 202.864 515.038 202.395 513.921 201.455C512.804 200.49 512.245 199.271 512.245 197.799C512.245 196.504 514.099 192.111 517.806 184.621C517.45 183.834 517.298 183.098 517.349 182.412C517.45 181.193 518.682 180.241 521.043 179.556C524.648 173.31 528.66 166.835 533.078 160.132C539.426 150.509 543.336 145.697 544.809 145.697C547.602 145.697 549.468 147.386 550.407 150.763C550.915 153.479 551.715 157.555 552.807 162.988C554.355 170.301 556.247 178.667 558.481 188.087C558.659 188.798 559.307 190.474 560.424 193.114C561.338 195.298 561.795 196.936 561.795 198.027C561.795 199.5 561.236 200.731 560.119 201.722C559.027 202.712 557.783 203.182 556.387 203.131ZM542.181 164.055C540.2 167.457 537.471 172.091 533.992 177.956C535.135 177.702 536.912 177.499 539.324 177.347C542.168 177.169 543.958 177.029 544.694 176.928C544.085 173.627 543.247 169.336 542.181 164.055ZM626.046 192.619C626.046 193.889 625.83 195.895 625.398 198.637C624.891 201.912 623.037 203.55 619.838 203.55C618.061 203.55 616.055 202.547 613.82 200.541C604.045 191.73 593.013 179.378 580.724 163.483C580.571 170.085 580.495 174.135 580.495 175.633C580.495 177.639 580.533 180.66 580.609 184.697C580.711 188.734 580.762 191.756 580.762 193.762C580.762 201.252 578.934 204.997 575.277 204.997C573.424 204.997 571.938 204.426 570.821 203.283C569.831 202.268 569.336 201.036 569.336 199.589C569.336 198.573 569.412 197.037 569.564 194.98C569.742 192.924 569.831 191.388 569.831 190.372C569.831 188.874 569.882 186.627 569.983 183.631C570.085 180.635 570.136 178.388 570.136 176.89C570.136 175.29 570.098 172.878 570.021 169.653C569.945 166.429 569.907 164.017 569.907 162.417C569.907 160.894 569.755 158.621 569.45 155.6C569.146 152.578 568.993 150.306 568.993 148.782C568.993 147.259 569.641 145.9 570.936 144.707C572.256 143.514 573.754 142.917 575.43 142.917C577.309 142.917 579.391 144.542 581.676 147.792C593.203 164.245 604.578 177.664 615.801 188.049C615.826 187.236 615.839 185.307 615.839 182.26C615.839 169.742 615.712 161.3 615.458 156.933C615.407 156.196 615.242 154.825 614.963 152.819C614.709 151.042 614.582 149.646 614.582 148.63C614.582 145.126 616.436 143.374 620.143 143.374C624.281 143.374 626.351 149.76 626.351 162.531C626.351 162.811 626.325 164.816 626.274 168.549C626.122 181.447 626.046 189.471 626.046 192.619ZM640.023 202.369C638.525 202.344 637.269 201.836 636.253 200.846C635.237 199.83 634.729 198.611 634.729 197.189C634.729 194.65 634.844 190.842 635.072 185.764C635.326 180.686 635.453 176.877 635.453 174.338C635.453 171.52 635.39 167.292 635.263 161.655C635.161 156.019 635.11 151.791 635.11 148.973C635.11 147.576 635.783 146.192 637.129 144.821C638.475 143.425 639.909 142.727 641.433 142.727C642.271 142.727 644.378 143.514 647.755 145.088C651.69 146.967 654.026 148.021 654.763 148.249C662.202 150.661 668.55 154.394 673.806 159.446C680.077 165.464 683.213 172.116 683.213 179.403C683.213 183.796 682.134 187.973 679.976 191.934C677.817 195.971 674.859 199.208 671.102 201.646C666.887 204.388 660.958 205.759 653.315 205.759C651.462 205.759 649.329 205.492 646.917 204.959C643.997 204.299 641.699 203.436 640.023 202.369ZM661.428 163.217C658.965 161.668 653.684 159.23 645.584 155.904V193.609C646.574 194.244 647.704 194.727 648.974 195.057C650.269 195.361 651.703 195.514 653.277 195.514C658.762 195.514 662.697 194.752 665.084 193.229C667.344 191.781 669.134 189.813 670.454 187.325C671.8 184.837 672.473 182.247 672.473 179.556C672.473 173.259 668.791 167.812 661.428 163.217ZM733.182 203.131C731.176 203.055 729.157 200.693 727.126 196.047C725.78 193.051 724.625 189.598 723.66 185.688C721.781 185.967 718.709 186.246 714.443 186.525C710.432 186.805 707.359 187.135 705.227 187.516C704.059 190.309 702.027 194.511 699.133 200.122C698.016 201.95 696.467 202.864 694.486 202.864C693.09 202.864 691.833 202.395 690.716 201.455C689.599 200.49 689.04 199.271 689.04 197.799C689.04 196.504 690.894 192.111 694.601 184.621C694.245 183.834 694.093 183.098 694.144 182.412C694.245 181.193 695.477 180.241 697.838 179.556C701.443 173.31 705.455 166.835 709.873 160.132C716.221 150.509 720.131 145.697 721.604 145.697C724.396 145.697 726.263 147.386 727.202 150.763C727.71 153.479 728.51 157.555 729.602 162.988C731.15 170.301 733.042 178.667 735.276 188.087C735.454 188.798 736.102 190.474 737.219 193.114C738.133 195.298 738.59 196.936 738.59 198.027C738.59 199.5 738.031 200.731 736.914 201.722C735.822 202.712 734.578 203.182 733.182 203.131ZM718.976 164.055C716.995 167.457 714.266 172.091 710.787 177.956C711.93 177.702 713.707 177.499 716.119 177.347C718.963 177.169 720.753 177.029 721.489 176.928C720.88 173.627 720.042 169.336 718.976 164.055Z" fill="#3D2D0C"/>
<path d="M372 57.9883L377.262 81.2842L397.456 68.5324L384.704 88.7261L408 93.9883L384.704 99.2505L397.456 119.444L377.262 106.692L372 129.988L366.738 106.692L346.544 119.444L359.296 99.2505L336 93.9883L359.296 88.7261L346.544 68.5324L366.738 81.2842L372 57.9883Z" fill="#FFF7AF"/>
</svg>
